<svg width="218" height="133" viewBox="0 0 218 133" fill="none" xmlns="http://www.w3.org/2000/svg">
<path d="M148.942 43.832C148.748 40.3865 143.038 40.2429 143.038 40.2429C143.038 40.2429 138.106 45.1582 136.993 45.0644C135.88 44.9705 140.39 40.0373 140.39 40.0373C138.328 39.3888 132.431 40.8361 132.431 40.8361C132.431 40.8361 131.366 47.5629 130.31 47.1969C129.254 46.8308 131.556 41.2894 131.556 41.2894C129.393 41.4705 126.994 43.4481 126.994 43.4481C123.807 46.8167 128.288 50.7447 128.288 50.7447C128.288 50.7447 127.868 53.0677 125.886 55.4151C125.541 55.7794 125.23 56.1753 124.959 56.5977L125.514 56.715C125.591 56.5761 125.671 56.4432 125.756 56.3162C125.812 56.2382 125.892 56.1284 125.992 55.9933C126.231 55.6967 126.397 55.4752 126.507 55.3137C127.234 54.3752 128.252 53.1747 128.8 52.9926C128.766 52.902 128.745 52.8073 128.736 52.711L128.8 52.9926C129.32 55.2311 133.994 56.5743 136.753 56.5912C139.512 56.6081 138.517 55.616 137.349 54.103C136.181 52.59 133.132 52.2774 132.349 51.6157C131.567 50.954 132.957 50.7513 134.692 51.26C136.428 51.7687 136.936 53.721 139.726 54.5948C142.515 55.4686 145.817 50.5589 145.817 50.5589C143.722 50.7532 140.426 48.921 140.433 48.2124C140.441 47.5038 145.647 48.6817 146.504 48.646C147.36 48.6104 149.134 47.2776 148.942 43.832Z" fill="#DFEBFD"/>
<path opacity="0.5" d="M130.275 36.069C130.275 36.069 133.711 23.7219 141.302 17.2091C142.311 16.3437 143.85 17.2316 143.62 18.5419C143.62 18.5635 143.612 18.586 143.608 18.6076C143.179 20.8386 134.517 29.1911 130.275 36.069Z" fill="#AFCDFB"/>
<path opacity="0.5" d="M128.939 39.5495C128.939 39.5495 137.772 24.8137 149.796 19.5576C150.529 19.2366 151.41 19.5295 151.758 20.2522C151.984 20.7215 152.013 21.4066 151.525 22.3931C150.227 25.0211 136.578 32.4435 128.939 39.5495Z" fill="#AFCDFB"/>
<path opacity="0.5" d="M127.547 101.878C127.547 101.878 140.954 95.1479 143.379 97.4925C145.804 99.8371 127.547 101.878 127.547 101.878Z" fill="#AFCDFB"/>
<path opacity="0.5" d="M125.365 102.686C125.365 102.686 143.316 101.107 143.598 104.854C143.88 108.601 125.365 102.686 125.365 102.686Z" fill="#AFCDFB"/>
<path d="M63.4973 23.5126C65.7867 16.4422 77.7502 19.2749 77.7502 19.2749C77.7502 19.2749 85.3335 32.218 87.7035 32.6347C90.0736 33.0514 83.3777 20.2998 83.3777 20.2998C88.0203 20.0793 99.5171 26.3321 99.5171 26.3321C99.5171 26.3321 98.0552 40.9252 100.454 40.7441C102.853 40.5629 101.092 27.7559 101.092 27.7559C105.496 29.3196 109.414 34.7493 109.414 34.7493C114.214 43.5157 102.728 49.2355 102.728 49.2355C102.728 49.2355 102.329 54.3038 105.175 60.2807C105.175 60.2807 105.831 61.3901 106.457 63.2523L105.238 63.1932C105.155 62.8597 105.062 62.538 104.957 62.2283C104.958 62.2265 104.958 62.2245 104.957 62.2227C104.957 62.2183 104.957 62.2139 104.957 62.2095C104.883 62.0218 104.776 61.7402 104.643 61.408C104.307 60.6571 104.081 60.108 103.941 59.7101C102.938 57.3636 101.477 54.2973 100.436 53.6187C100.555 53.4497 100.652 53.2657 100.723 53.0715L100.436 53.6187C98.1292 57.9943 87.6586 58.2271 81.9036 56.747C76.1486 55.2668 78.7632 53.7491 82.0245 51.2384C85.2857 48.7277 91.8092 49.7526 93.7978 48.8028C95.7864 47.8529 93.0059 46.6684 89.1121 46.7764C85.2183 46.8843 83.0947 50.6706 76.8046 50.9596C70.5145 51.2487 66.3134 39.2142 66.3134 39.2142C70.5698 40.7704 78.4381 38.7627 78.8092 37.2845C79.1803 35.8062 67.6947 35.3913 65.9291 34.8554C64.1636 34.3195 61.2078 30.583 63.4973 23.5126Z" fill="#DFEBFD"/>
<path d="M145.566 76.8617C144.427 72.6475 137.326 73.9643 137.326 73.9643C137.326 73.9643 132.504 81.3397 131.102 81.5152C129.699 81.6908 133.994 74.4036 133.994 74.4036C131.277 74.1398 124.351 77.4765 124.351 77.4765C124.351 77.4765 124.79 86.0815 123.387 85.905C121.984 85.7286 123.387 78.2668 123.387 78.2668C120.757 79.0571 118.302 82.13 118.302 82.13C115.234 87.1346 121.809 90.8223 121.809 90.8223C121.809 90.8223 121.897 93.8079 120.055 97.2319C119.724 97.7736 119.443 98.3452 119.218 98.9392H119.935C119.994 98.7514 120.058 98.5637 120.13 98.3816V98.3741C120.178 98.2634 120.249 98.1057 120.337 97.9133C120.556 97.4834 120.704 97.1624 120.798 96.9372C121.454 95.5893 122.4 93.8323 123.031 93.4644C122.966 93.3617 122.914 93.251 122.877 93.1349C122.926 93.2401 122.977 93.3489 123.031 93.4644C124.258 96.0981 130.395 96.5373 133.814 95.8343C137.232 95.1313 135.742 94.1665 133.902 92.599C132.061 91.0316 128.203 91.4446 127.061 90.8298C125.918 90.215 127.586 89.6002 129.866 89.7767C132.146 89.9531 133.285 92.2348 136.967 92.5859C140.649 92.9369 143.454 86.0007 143.454 86.0007C140.912 86.791 136.353 85.386 136.178 84.5084C136.003 83.6308 142.753 83.7181 143.805 83.4544C144.858 83.1906 146.711 81.076 145.566 76.8617Z" fill="#DFEBFD"/>
<path d="M71.9826 71.9365C74.5072 67.145 82.7466 70.6751 82.7466 70.6751C82.7466 70.6751 86.5795 80.9178 88.2298 81.5129C89.8801 82.108 86.6601 72.1139 86.6601 72.1139C90.0216 72.5363 97.5 78.4634 97.5 78.4634C97.5 78.4634 94.6304 88.7606 96.3754 88.9305C98.1204 89.1004 98.4512 79.6826 98.4512 79.6826C101.421 81.3561 103.558 85.745 103.558 85.745C105.912 92.6407 96.9499 95.3129 96.9499 95.3129C96.9499 95.3129 96.0324 98.903 97.3313 103.55C97.5858 104.296 97.77 105.064 97.8814 105.845L97.0136 105.649C96.9948 105.4 96.9677 105.157 96.9292 104.921C96.9292 104.921 96.9292 104.921 96.9292 104.916C96.9296 104.913 96.9296 104.91 96.9292 104.906C96.9002 104.759 96.858 104.549 96.8037 104.291C96.6556 103.711 96.5628 103.287 96.5113 102.984C96.083 101.173 95.4158 98.7885 94.7523 98.1709C94.8593 98.0646 94.9519 97.9447 95.0278 97.8142L94.7523 98.1709C92.5509 101.025 85.006 99.8838 81.0541 98.1014C77.1022 96.3191 79.1723 95.5569 81.8272 94.1594C84.4822 92.7618 89.0432 94.3152 90.5857 93.8778C92.1283 93.4404 90.2802 92.2428 87.4688 91.8345C84.6574 91.4262 82.6622 93.8787 78.1087 93.3006C73.5551 92.7224 72.0444 83.5599 72.0444 83.5599C74.9074 85.209 80.8086 84.751 81.2593 83.7364C81.7101 82.7218 73.5139 80.9873 72.3125 80.3819C71.111 79.7765 69.4579 76.7233 71.9826 71.9365Z" fill="#CDE0FB"/>
<path d="M69.6707 111.034C68.3362 108.134 72.9347 105.536 72.9347 105.536C72.9347 105.536 79.0936 107.407 79.9633 106.85C80.8329 106.294 75.0095 104.222 75.0095 104.222C76.4152 102.797 81.8572 101.414 81.8572 101.414C81.8572 101.414 85.6423 106.446 86.347 105.687C87.0518 104.929 82.7681 101.404 82.7681 101.404C84.6133 100.611 87.4294 101.181 87.4294 101.181C91.4947 102.546 89.5352 107.703 89.5352 107.703C89.5352 107.703 90.8837 109.419 93.5208 110.474C93.9604 110.622 94.3852 110.81 94.7897 111.037L94.3877 111.373C94.2649 111.294 94.1412 111.219 94.0175 111.153H94.0119C93.9322 111.113 93.8188 111.059 93.6792 110.991C93.355 110.853 93.1235 110.745 92.9642 110.661C91.9643 110.213 90.611 109.673 90.0853 109.763C90.0735 109.674 90.0505 109.588 90.0169 109.505C90.0384 109.587 90.0609 109.673 90.0853 109.763C90.6307 111.816 87.3948 114.946 85.1484 116.158C82.9021 117.371 83.2854 116.129 83.5834 114.385C83.8814 112.641 86.2383 111.06 86.5898 110.18C86.9412 109.301 85.7192 109.737 84.5224 110.908C83.3257 112.078 83.7568 113.892 81.8572 115.819C79.9576 117.746 75.1342 115.176 75.1342 115.176C76.9297 114.425 78.8284 111.493 78.5154 110.919C78.2024 110.345 74.4576 113.565 73.7444 113.912C73.0312 114.259 71.0061 113.933 69.6707 111.034Z" fill="#D9E8FA"/>
<path d="M55.2051 93.0747C55.2051 93.0747 56.7214 93.2493 57.8956 93.1789C59.3632 93.0907 61.1756 93.0531 61.5092 93.4455C61.8428 93.8378 61.8457 93.8368 61.1934 94.1813C60.6855 94.4507 58.7269 95.3151 57.4045 94.9049C56.0822 94.4948 54.3926 94.5783 54.3926 94.5783L55.2051 93.0747Z" fill="#FFB27D"/>
<path d="M39.0156 78.6005C39.0156 78.6005 41.8411 92.6174 45.2007 93.6873C46.8604 94.2148 54.1148 95.2041 56.244 95.22C56.244 95.22 56.7388 94.7667 56.5102 93.0557C56.5102 93.0557 48.834 90.7411 47.6776 89.3013C45.9561 87.1595 48.1209 80.1088 46.0029 78.1322C43.885 76.1555 40.4738 75.4506 39.0156 78.6005Z" fill="#6E1FEA"/>
<path d="M40.355 130.838H40.7636C41.1736 130.838 41.5059 130.506 41.5059 130.095V107.469C41.5059 107.059 41.1736 106.726 40.7636 106.726H40.355C39.9451 106.726 39.6128 107.059 39.6128 107.469V130.095C39.6128 130.506 39.9451 130.838 40.355 130.838Z" fill="#96C1ED"/>
<path d="M32.0684 132.424C32.9586 130.579 36.4214 129.204 40.5579 129.204C44.6944 129.204 48.1572 130.579 49.0474 132.424H32.0684Z" fill="#96C1ED"/>
<path d="M34.3319 126.17H46.7893C46.9208 126.17 47.0273 126.063 47.0273 125.932V125.437C47.0273 125.305 46.9208 125.198 46.7893 125.198H34.3319C34.2004 125.198 34.0939 125.305 34.0939 125.437V125.932C34.0939 126.063 34.2004 126.17 34.3319 126.17Z" fill="#96C1ED"/>
<path d="M39.4586 104.53C40.042 105.502 40.6914 106.432 41.4022 107.314C43.5399 110.017 45.8668 112.246 46.2754 114.353C46.3674 114.811 46.4927 115.262 46.6502 115.701C46.8198 116.184 47.0251 116.691 47.2706 117.216C48.1778 119.187 49.5347 121.401 50.8889 123.411C53.2317 126.883 55.4331 129.785 55.4331 129.785L59.4712 129.614C59.3091 129.208 57.5482 124.409 55.1922 118.546L52.2318 111.192C52.1006 110.866 51.97 110.541 51.8401 110.22C51.5402 109.469 51.2456 108.736 50.9564 108.02C48.7447 102.514 46.982 98.1289 46.982 98.1289C46.982 98.1289 38.1401 94.7744 37.2217 96.9482C36.4673 98.7409 37.0839 100.497 39.4586 104.53Z" fill="#163560"/>
<path d="M55.5547 129.052C55.5547 129.052 55.7618 132.389 56.4065 132.437C56.4918 132.444 59.6762 132.444 59.6762 132.444L63.7406 132.419C63.7406 132.419 63.7144 131.438 62.5223 131.231C61.3303 131.024 59.3454 130.187 58.6257 128.615C57.8722 126.96 55.5547 129.052 55.5547 129.052Z" fill="#163560"/>
<path d="M46.2033 119.517C46.2033 119.517 43.3919 121.324 43.6674 121.911C43.704 121.989 45.2606 124.774 45.2606 124.774L47.2623 128.317C47.2623 128.317 48.1057 127.815 47.7065 126.675C47.3073 125.536 47.0674 123.39 48.0879 121.992C49.1563 120.524 46.2033 119.517 46.2033 119.517Z" fill="#163560"/>
<path d="M50.1578 96.6353C50.1578 96.6353 62.126 105.246 63.4333 107.951C64.4539 110.064 48.1898 123.492 48.1898 123.492C48.1898 123.492 45.8217 121.145 45.5115 120.004C45.5115 120.004 51.1137 111.941 55.5529 109.323C56.8752 108.544 39.7069 106.641 37.8485 103.746C35.9902 100.851 37.0135 97.0163 37.0135 97.0163L50.1578 96.6353Z" fill="#1C468A"/>
<path d="M50.1063 109.316H30.8847C30.2024 109.316 29.5481 109.045 29.0657 108.562C28.5832 108.079 28.3122 107.423 28.3122 106.74V106.323C28.3122 105.64 28.5833 104.984 29.0659 104.501C29.5485 104.017 30.2031 103.746 30.8856 103.746H50.1063C50.7888 103.746 51.4434 104.017 51.926 104.501C52.4086 104.984 52.6797 105.64 52.6797 106.323V106.739C52.6797 107.423 52.4086 108.078 51.926 108.562C51.4434 109.045 50.7888 109.316 50.1063 109.316Z" fill="#FF136F"/>
<path d="M44.8742 72.2701C45.5253 72.6743 46.097 73.1944 46.5611 73.8047C43.9024 74.4937 39.4941 72.0261 39.4941 72.0261C39.4941 72.0261 41.2063 70.8745 41.837 68.3431C41.8698 68.2155 41.8988 68.085 41.9241 67.9508C42.0125 67.4941 42.0608 67.0305 42.0685 66.5654L43.2867 67.6608L45.3175 69.4835C45.2585 70.1746 45.1583 70.8616 45.0176 71.5409C44.983 71.7671 44.9324 72.0111 44.8742 72.2701Z" fill="#FFB27D"/>
<path d="M50.3398 96.1678C50.3332 96.195 50.3257 96.2213 50.3164 96.2495C50.0596 96.9703 46.193 99.4135 43.5755 100.379C41.944 100.986 36.2837 102.339 35.9116 101.173C35.4787 99.8217 37.0615 89.9703 36.6791 84.8419C36.2302 78.5703 37.9649 72.8618 40.3752 70.9987C40.557 70.8645 40.9178 71.2212 41.9618 71.7177C42.9261 72.1748 43.9916 72.3062 44.8941 72.1081L45.7019 72.8036C46.8199 73.8088 48.0447 75.1829 48.607 77.2891C48.9482 78.5806 49.2049 80.6258 49.397 82.9206C49.4692 83.8113 49.5339 84.7405 49.5845 85.6782C49.6707 87.1724 49.7457 88.6817 49.7822 90.1121C49.7822 90.1393 49.7822 90.1665 49.7822 90.1947V90.2463C49.7981 90.3908 49.8 90.5485 49.8019 90.6931C49.8038 90.8376 49.8094 90.9831 49.8131 91.1248C49.8394 92.2511 49.8375 93.2836 49.8769 94.1874C49.8893 94.5405 49.959 94.8892 50.083 95.2199C50.1824 95.4817 50.2864 95.6751 50.3304 95.86C50.3569 95.9605 50.3601 96.0658 50.3398 96.1678Z" fill="#6808FF"/>
<path d="M45.3287 69.4824C45.2697 70.1736 45.1695 70.8606 45.0288 71.5398C43.0458 70.8978 42.1462 69.0995 41.8425 68.342C41.7573 68.1271 41.7207 67.9947 41.7207 67.9947L41.9297 67.9497L43.2951 67.6597L45.3287 69.4824Z" fill="#FFA05F"/>
<path d="M45.9327 70.1246C45.9327 70.1246 41.5488 70.0129 41.6603 67.2807C41.7718 64.5484 41.2808 62.6919 44.0847 62.6478C46.8886 62.6037 47.389 63.669 47.5727 64.5897C47.7564 65.5105 47.077 70.0833 45.9327 70.1246Z" fill="#FFB27D"/>
<path d="M61.6263 93.6503L62.0078 93.7744L65.2527 83.7722L64.8712 83.6481L61.6263 93.6503Z" fill="#1C468A"/>
<path d="M50.9788 93.5453L61.9961 93.7803L62.0101 93.1206L50.9928 92.8856L50.9788 93.5453Z" fill="#1C468A"/>
<path d="M41.1165 62.1993C41.0884 62.1533 41.0144 62.1054 40.8354 62.066C40.9467 62.0263 41.0661 62.0144 41.1831 62.0313C41.2646 61.7901 41.4736 61.3743 41.9168 61.3452C41.8406 61.3736 41.7717 61.4187 41.7153 61.4774C41.6588 61.536 41.6162 61.6066 41.5907 61.684C42.1727 61.2654 43.2926 61.0842 46.1733 61.8342C49.9687 62.8216 48.2631 65.0657 47.713 65.2713C47.1629 65.4768 46.0505 64.4472 45.1087 64.3561C44.1669 64.2651 43.7527 65.5763 43.405 65.7058C43.0573 65.8353 43.2391 65.5303 42.8427 65.2619C42.4463 64.9934 42.2804 65.6927 42.3273 66.1751C42.3742 66.6575 41.6713 67.1597 41.6713 67.1597L41.1934 66.4154C40.7145 65.672 40.6311 62.8694 41.0059 62.341L41.1165 62.1993Z" fill="#2C3A64"/>
<path d="M50.0887 95.2244C49.025 95.0507 46.3964 94.5242 44.4874 93.3275C41.0416 91.1687 39.0117 80.2061 39.0117 80.2061L44.4087 87.1272L49.8122 91.089L49.8188 91.1284C49.845 92.2547 49.8432 93.2871 49.8825 94.191C49.8949 94.5443 49.9645 94.8934 50.0887 95.2244Z" fill="#6E1FEA"/>
<path d="M55.2189 90.1468C55.4899 90.2229 55.7764 90.2229 56.0474 90.1468C56.4944 90.0192 58.0247 89.6353 58.2796 89.7629C58.5345 89.8906 59.332 90.5298 59.5242 90.6574C59.7163 90.785 60.0021 91.3285 60.0021 91.3285C59.8259 91.4571 59.3461 91.0188 59.1099 90.9868C58.8738 90.9549 56.9545 91.6317 56.4307 91.5678C55.9833 91.4964 55.5413 91.3951 55.1074 91.2647L55.2189 90.1468Z" fill="#FFB27D"/>
<path d="M58.3945 90.7368C58.3945 90.7659 58.9175 91.5815 59.4404 91.4351L58.9934 90.8213L58.3945 90.7368Z" fill="#FFB27D"/>
<path d="M56.0488 90.1446C56.0488 90.1446 56.7048 89.7063 56.9391 89.4819C56.9391 89.4819 57.045 89.5523 57.0328 89.6499C57.0141 89.8133 56.8088 90.0845 56.8088 90.0845L56.0488 90.1446Z" fill="#FFB27D"/>
<path d="M44.495 74.7449C41.6582 72.3149 37.4018 75.065 38.4223 78.6617C39.6059 82.8309 41.8897 89.7088 44.241 90.3771C45.9166 90.8529 53.1982 91.616 55.3264 91.5653C55.3264 91.5653 55.7209 91.7164 55.4398 90.0129C55.4398 90.0129 47.4554 87.5435 46.5801 85.9179C46.1115 85.0459 46.7385 76.7197 44.5606 74.8022L44.495 74.7449Z" fill="#6808FF"/>
<path d="M166.299 69.6851C166.299 69.6851 171.8 75.3973 172.059 77.5476C172.319 79.6979 169.424 83.0533 169.424 83.0533L166.299 69.6851Z" fill="#FF136F"/>
<path d="M163.813 128.884C163.813 128.884 163.618 131.914 163.033 131.956C162.956 131.962 160.064 131.956 160.064 131.956L156.373 131.927C156.373 131.927 156.399 131.036 157.479 130.85C158.558 130.665 160.365 129.912 161.022 128.482C161.713 126.981 163.813 128.884 163.813 128.884Z" fill="#163560"/>
<path d="M172.031 128.902C172.031 128.902 171.837 131.931 171.251 131.974C171.173 131.979 168.282 131.974 168.282 131.974L164.592 131.944C164.592 131.944 164.618 131.053 165.697 130.867C166.775 130.681 168.584 129.928 169.24 128.499C169.933 126.998 172.031 128.902 172.031 128.902Z" fill="#163560"/>
<path d="M159.795 96.3071C159.795 96.3071 160.747 102.492 164.324 113.477C167.901 124.461 168.382 129.214 168.382 129.214L172.245 129.114C172.245 129.114 172.304 117.118 170.652 111.596C169 106.073 170.337 91.6978 170.337 91.6978L159.795 96.3071Z" fill="#163560"/>
<path d="M157.928 92.0093C157.928 92.0093 157.771 101.327 159.355 112.771C160.94 124.215 160.386 129.069 160.386 129.069L164.241 129.205C164.241 129.205 166.569 117.766 165.921 112.039C165.272 106.311 169.117 92.3988 169.117 92.3988L157.928 92.0093Z" fill="#1C468A"/>
<path d="M165.44 70.2209L163.378 71.5612L160.41 70.9981C160.452 70.7588 160.65 69.7639 160.831 68.8638C160.841 68.8103 160.852 68.7577 160.863 68.7051L161.15 67.2804L163.925 66.0602L164.956 65.605C164.956 65.6209 164.875 66.4563 164.863 66.5774C164.672 68.7455 165.44 70.2209 165.44 70.2209Z" fill="#FFB27D"/>
<path d="M161.176 69.532C161.234 69.5076 164.754 68.4761 165.135 68.6037C165.516 68.7314 165.741 69.4709 165.741 69.4709L159.986 70.7615C159.986 70.7615 160.441 69.8407 161.176 69.532Z" fill="#FF136F"/>
<path d="M170.593 93.1874C169.992 95.9093 160.069 96.2116 157.516 93.7337C157.227 93.4521 157.215 92.1381 157.329 90.3726C157.551 86.9186 158.251 81.7245 158.284 79.0702C158.313 77.7989 158.457 76.5328 158.715 75.2877C159.022 73.7488 159.446 72.2357 159.984 70.7618C159.984 70.7618 164.833 69.2028 165.739 69.4722C170.108 70.7665 171.199 90.4655 170.593 93.1874Z" fill="#FF7CAF"/>
<path d="M157.33 90.372C157.552 86.918 158.252 81.7239 158.285 79.0695C158.314 77.7982 158.458 76.5322 158.716 75.287L161.632 74.7783C161.632 74.7783 164.457 86.444 157.33 90.372Z" fill="#FF136F"/>
<path d="M158.918 85.5612C158.918 85.5612 159.116 86.037 158.698 86.3561C158.28 86.6753 158.008 87.1915 158.103 87.5697C158.197 87.948 159.112 88.5665 159.43 88.468C159.747 88.3694 160.394 87.8729 160.325 87.673C160.255 87.4731 160.763 85.9235 159.99 85.3265C159.217 84.7296 158.918 85.5612 158.918 85.5612Z" fill="#FFB27D"/>
<path d="M162.213 70.0669C162.213 70.0669 159.37 70.5934 157.096 73.932C154.823 77.2705 153.328 79.7512 153.743 80.9592C154.158 82.1671 157.953 86.3532 158.608 86.3551C159.263 86.357 160.324 85.8858 160.388 84.8064C160.388 84.8064 157.718 80.7799 158.248 80.1792C158.474 79.923 161.73 77.2865 162.192 78.4813C162.953 80.4589 162.213 70.0669 162.213 70.0669Z" fill="#FF136F"/>
<path d="M164.664 66.6251C164.053 67.6575 161.782 68.5445 160.836 68.8711C160.846 68.8176 160.857 68.7651 160.868 68.7125L161.156 67.2877L163.93 66.0675C164.543 66.0619 164.916 66.1999 164.664 66.6251Z" fill="#FFA05F"/>
<path d="M160.106 67.1163C160.106 67.1163 164.569 68.5242 165.4 65.7244C166.231 62.9246 167.368 61.2248 164.557 60.2093C161.745 59.1937 160.869 60.0957 160.365 60.9601C159.861 61.8246 158.97 66.6808 160.106 67.1163Z" fill="#FFB27D"/>
<path d="M160.538 60.6922C160.538 60.6922 160.82 63.95 161.49 63.8102C162.16 63.6703 162.773 63.5662 162.671 64.5479C162.57 65.5297 161.64 66.6616 163.708 66.839C165.775 67.0164 168.768 61.6702 168.206 60.6556C166.568 57.7281 158.172 57.119 160.538 60.6922Z" fill="#163560"/>
<path d="M112.816 80.6846C112.678 80.8766 112.605 81.1079 112.608 81.3444C112.611 81.581 112.69 81.8103 112.832 81.9986C112.856 82.0294 112.876 82.0628 112.892 82.0981C118.29 85.3466 134.483 98.4886 134.483 107.752V126.938H85.6142V107.742C85.6142 98.4201 102.027 85.0688 107.307 81.9968C107.451 81.8056 107.53 81.5734 107.532 81.3341C107.529 81.0921 107.45 80.857 107.307 80.6621C102.015 77.5207 85.6133 64.2688 85.6133 54.9449V35.7583H134.482V54.9543C134.483 64.2613 118.124 77.5845 112.816 80.6846Z" fill="#B0D4FF"/>
<path d="M84.9953 126.938H134.818C135.473 126.938 136.1 127.199 136.563 127.662C137.026 128.126 137.286 128.754 137.286 129.41V131.881H82.4219V129.516C82.4219 128.832 82.693 128.177 83.1756 127.693C83.6582 127.21 84.3128 126.938 84.9953 126.938Z" fill="#FF136F"/>
<path d="M99.6029 108.929C99.3526 113.224 100.165 122.489 100.095 126.938H85.6142V107.742C85.6142 98.4201 102.027 85.0688 107.307 81.9968C107.451 81.8056 107.53 81.5734 107.532 81.3341C107.529 81.0921 107.45 80.857 107.307 80.6621C102.015 77.5207 85.6133 64.2688 85.6133 54.9449V35.7583H95.3005L102.216 37.6533V52.8284C102.216 52.8284 101.531 57.1993 103.246 61.4924C104.962 65.7855 108.642 79.5593 108.588 81.3482C108.535 83.1372 100.032 101.567 99.6029 108.929Z" fill="#A4C8FC"/>
<path d="M128.151 48.5151C125.189 48.5592 120.092 49.0942 111.856 51.176C106.215 52.6017 96.4865 51.5279 91.3434 50.7902C90.9187 50.7299 90.4861 50.7616 90.0746 50.8831C89.6632 51.0046 89.2826 51.213 88.9584 51.4944C88.6343 51.7758 88.3742 52.1236 88.1958 52.5142C88.0173 52.9049 87.9245 53.3293 87.9238 53.7589V55.9703C87.9238 62.0635 104.296 75.2648 108.624 78.6493C108.948 78.9022 109.21 79.2256 109.39 79.5952C109.571 79.9647 109.664 80.3705 109.665 80.7818V114.671C109.663 115.241 109.524 115.801 109.26 116.306C108.996 116.81 108.615 117.243 108.148 117.569C104.743 119.955 99.0055 126.94 99.0055 126.94H120.704C120.704 126.94 114.885 120.2 111.619 117.697C111.251 117.416 110.953 117.054 110.747 116.639C110.542 116.224 110.434 115.766 110.434 115.303V80.7724C110.434 80.3632 110.526 79.9593 110.703 79.5905C110.88 79.2217 111.137 78.8975 111.456 78.6418C115.701 75.2375 131.714 61.9885 131.714 55.8989V52.0291C131.714 51.563 131.622 51.1016 131.442 50.6717C131.263 50.2417 130.999 49.8519 130.668 49.5249C130.336 49.1978 129.943 48.9401 129.511 48.7668C129.079 48.5934 128.617 48.5078 128.151 48.5151Z" fill="#6808FF"/>
<path d="M82.4219 32.71H137.286V35.0893C137.286 35.7691 137.016 36.4211 136.536 36.9018C136.056 37.3825 135.405 37.6526 134.726 37.6526H84.8894C84.2349 37.6526 83.6073 37.3922 83.1446 36.9287C82.6818 36.4653 82.4219 35.8367 82.4219 35.1813V32.71Z" fill="#FF136F"/>
<path d="M41.2598 46.1854L54.1145 48.0222L45.5837 42.1992L45.1498 44.0661L42.0235 44.633L41.2598 46.1854Z" fill="#9EC3F6"/>
<path d="M54.1138 48.0217L43.4163 42.4982L32.9316 41.9697L54.1138 48.0217Z" fill="#CDE0FB"/>
<path d="M45.582 42.1994L54.1128 48.0224L47.5088 38.9209L45.582 42.1994Z" fill="#CDE0FB"/>
<path d="M106.473 30.358C105.329 32.3525 103.89 33.1231 103.89 33.1231H97.9023C97.9023 33.1231 107.347 28.8319 106.473 30.358Z" fill="#233862"/>
<path d="M101.873 45.786C101.802 45.8653 101.756 45.9635 101.739 46.0687C101.723 46.174 101.737 46.2818 101.78 46.3792C101.923 46.7743 102.395 47.2164 102.943 47.6566C103.013 47.7139 103.075 47.7645 103.13 47.8124L103.172 47.8499L103.204 47.879C103.715 48.3483 103.523 48.4591 104.441 49.4164C105.488 50.508 106.209 50.5277 106.414 50.4282C106.587 50.3428 106.235 49.7647 105.844 49.1142L105.788 49.0204C105.735 48.934 105.684 48.8458 105.632 48.7594C105.174 47.9767 105.292 47.6097 105.401 46.4449C105.489 45.4979 106.871 41.1559 106.871 41.1559L104.865 40.8105C104.865 40.8105 104.26 44.2674 103.595 44.7995C103.239 45.0811 102.845 45.0867 102.499 45.2979C102.474 45.312 102.451 45.327 102.427 45.343C102.223 45.4648 102.037 45.6138 101.873 45.786Z" fill="#FFB27D"/>
<path d="M101.873 45.7864C101.802 45.8657 101.756 45.9639 101.739 46.0691C101.723 46.1743 101.737 46.2821 101.78 46.3796C101.955 46.7747 102.415 47.214 102.945 47.6532C103.014 47.7105 103.075 47.764 103.132 47.8128L103.174 47.8503L103.206 47.8794C103.717 48.3487 103.525 48.4595 104.443 49.4168C105.49 50.5084 106.211 50.5281 106.416 50.4286C106.589 50.3432 106.237 49.765 105.846 49.1146C105.114 48.8279 104.47 48.353 103.98 47.7377C103.349 46.9314 102.93 45.8962 102.5 45.2974C102.476 45.3114 102.453 45.3265 102.429 45.3424C102.225 45.4644 102.038 45.6137 101.873 45.7864Z" fill="#233862"/>
<path d="M118.051 44.5313C118.175 45.1517 119.058 45.0485 120.044 44.8073C121.03 44.5661 120.794 44.8523 122.199 44.6965C123.605 44.5407 124.029 44.017 124.074 43.8077C124.112 43.62 123.418 43.5571 122.675 43.4717L122.393 43.4379C121.55 43.3318 120.938 42.7893 120.175 42.3435C119.453 41.9211 118.374 40.2007 118.374 40.2007L116.449 40.3537C116.449 40.3537 117.459 41.8901 117.855 42.5584C118.085 42.9507 118.072 43.4707 118.042 43.8724C118.016 44.0915 118.019 44.313 118.051 44.5313Z" fill="#FFB27D"/>
<path d="M120.043 44.8117C121.029 44.5705 120.793 44.8567 122.199 44.7009C123.604 44.5451 124.028 44.0214 124.073 43.8121C124.111 43.6244 123.417 43.5615 122.674 43.4761L122.667 43.4901C122.066 43.8768 121.371 44.0931 120.657 44.1162C119.705 44.1387 118.696 43.8656 118.039 43.8768C118.014 44.0955 118.019 44.3164 118.053 44.5339C118.175 45.1515 119.057 45.0482 120.043 44.8117Z" fill="#233862"/>
<path d="M110.674 32.2037L108.875 37.0534L106.526 43.386C106.106 43.4169 105.684 43.3782 105.277 43.2715C104.715 43.1082 104.07 42.683 104.07 42.683C104.07 42.683 104.726 35.8839 105.939 31.9832C106.251 30.9808 106.601 30.1708 106.987 29.7146C108.873 27.4798 110.674 32.2037 110.674 32.2037Z" fill="#233862"/>
<path d="M108.843 24.5018C107.664 24.1208 104.301 24.6098 100.924 25.2724L100.217 24.1039L92.9216 23.5332C92.9216 23.5332 90.5141 28.8831 91.8317 32.2874C92.0257 32.7886 92.5055 32.9998 93.1615 33.0101C93.1615 33.0101 97.5146 33.1162 98.924 33.1162C102.553 33.1162 106.603 30.6186 107.127 30.5135C107.984 30.3417 108.327 32.0593 109.189 33.8633C110.05 35.6672 117.248 41.8516 117.248 41.8516C117.248 41.8516 118.355 41.8628 118.812 41.6911C119.304 41.5033 119.484 41.2659 119.484 41.2659C119.484 41.2659 111.501 25.3606 108.843 24.5018Z" fill="#2B478B"/>
<path d="M99.4421 2.64818C99.0177 2.39523 98.53 2.26919 98.0364 2.28495C97.8031 2.28886 97.5699 2.27348 97.3392 2.23896C94.5746 1.86352 92.9112 5.89099 92.8128 7.10927C92.6329 9.35718 91.4455 9.69977 89.7755 11.1067C86.4253 13.9281 87.4074 17.2075 89.2395 18.4277C90.3387 19.1588 92.2758 18.4277 92.2758 18.4277C92.303 18.4464 97.5734 15.4768 100.171 14.0435C104.069 13.4879 101.006 3.58113 99.4421 2.64818Z" fill="#233862"/>
<path d="M97.9972 12.8213C98.0094 12.8288 96.7189 13.2699 95.8568 12.887C95.0461 12.5284 94.4314 11.191 94.4435 11.191C94.8118 11.1741 95.2176 10.8502 95.5297 8.72998L95.6862 8.7863L98.329 9.73896C98.329 9.73896 98.1368 10.5884 98.0131 11.3965C97.9091 12.0751 97.8529 12.7255 97.9972 12.8213Z" fill="#FFB27D"/>
<path d="M98.3302 9.73928C98.3302 9.73928 98.1381 10.5887 98.0144 11.3968C96.4972 11.1228 95.9012 9.60882 95.6875 8.78662L98.3302 9.73928Z" fill="#FFA05F"/>
<path d="M98.7239 10.5834C98.7239 10.5834 95.1084 10.0973 95.4439 7.84747C95.7794 5.59769 95.5376 4.01899 97.8626 4.23392C100.188 4.44886 100.504 5.37524 100.574 6.15333C100.643 6.93141 99.6722 10.6482 98.7239 10.5834Z" fill="#FFB27D"/>
<path d="M100.445 4.92272C100.445 4.92272 98.1306 6.92003 96.5571 7.08146C94.9837 7.2429 94.3867 6.73607 94.3867 6.73607C95.015 6.17292 95.5209 5.48635 95.873 4.71905C95.9528 4.53793 96.0795 4.3815 96.24 4.26597C96.4005 4.15044 96.589 4.08003 96.7858 4.06204C97.9094 3.9663 100.04 3.92125 100.445 4.92272Z" fill="#233862"/>
<path d="M98.9922 4.74033C98.9922 4.74033 99.7663 5.4912 100.01 6.04684C100.245 6.58277 100.316 7.86676 100.129 8.37641C100.129 8.37641 101.335 6.02995 100.652 4.88582C99.9293 3.67598 98.9922 4.74033 98.9922 4.74033Z" fill="#233862"/>
<path d="M101.043 18.1575C100.934 25.4859 101.013 23.9542 100.212 24.6496C100.025 24.8177 99.4775 24.9171 98.7634 24.9641C96.5199 25.1133 92.5783 24.7435 92.4256 24.3277C91.9083 22.8907 92.2737 22.4449 91.8417 20.2449C91.7967 20.0102 91.7405 19.7568 91.6758 19.4818C91.315 17.9707 90.9655 17.4563 92.2381 15.0282C93.3974 12.83 94.6007 11.0449 94.7084 11.1096C97.7644 12.9258 98.0109 11.3987 98.0109 11.3987C98.0109 11.3987 101.097 14.5824 101.043 18.1575Z" fill="white"/>
<path d="M108.875 37.0541L106.526 43.3868C106.106 43.4176 105.684 43.379 105.277 43.2723C104.715 43.1089 104.07 42.6838 104.07 42.6838C104.07 42.6838 104.726 35.8846 105.939 31.9839L108.875 37.0541Z" fill="#2B478B"/>
<path d="M98.0156 11.3979C98.0156 11.3979 101.161 11.932 101.53 13.2873C101.899 14.6426 104.072 22.6159 104.072 22.6159C104.072 22.6159 102.474 22.9031 101.735 22.1635C100.997 21.4239 99.1655 15.3015 99.1655 15.3015L98.0156 11.3979Z" fill="white"/>
<path d="M98.7635 24.9629C96.52 25.1121 92.5784 24.7423 92.4256 24.3265C91.9083 22.8896 92.2738 22.4437 91.8418 20.2437L92.9242 17.1914C92.9242 17.1914 92.7452 20.59 93.7461 21.4836C94.7469 22.3771 97.8432 23.2096 98.3296 23.9567C98.5407 24.2592 98.6884 24.6015 98.7635 24.9629Z" fill="#EBF3FF"/>
<path d="M96.1895 23.532C96.1895 23.532 98.403 23.0383 98.76 23.2354C99.1171 23.4325 99.9905 24.1487 100.1 24.3983C100.21 24.648 99.3045 24.2106 99.0103 24.1299C98.8228 24.0783 98.3186 24.2529 98.0731 24.3364C97.0282 24.6846 96.3863 24.5053 96.3863 24.5053L96.1895 23.532Z" fill="#FFB27D"/>
<path d="M94.7077 11.1074C94.7077 11.1074 91.7351 11.2904 90.7061 12.7284C89.2583 14.751 86.385 23.3747 88.0315 24.5245C89.8861 25.8197 96.4714 24.8633 96.4714 24.8633C96.4714 24.8633 96.6907 23.8375 96.3861 23.3409C96.0816 22.8444 91.126 22.0429 90.8973 21.8139C90.6686 21.5848 93.7556 17.3471 93.7556 16.6601C93.7556 15.973 94.7077 11.1074 94.7077 11.1074Z" fill="white"/>
<path d="M98.8711 23.854C98.8711 23.854 99.3397 24.4538 99.4868 24.5251C99.5634 24.5666 99.6502 24.5851 99.737 24.5786L99.4249 24.0154L98.8711 23.854Z" fill="#FFB27D"/>
<path d="M98.7656 23.2373L100.115 23.8943C100.088 23.9269 100.054 23.952 100.015 23.9672C99.9752 23.9823 99.9327 23.987 99.8911 23.9807C99.7253 23.9732 99.3064 23.8192 99.3064 23.8192L98.7656 23.2373Z" fill="#FFB27D"/>
<path d="M99.4883 25.4427H110.156L113.364 17.4507H102.714L99.4883 25.4427Z" fill="#FF136F"/>
<path d="M110.277 25.1318H96.1895V25.4435H110.151L110.277 25.1318Z" fill="#FF136F"/>
<path d="M107.463 21.4472C107.544 21.1656 107.381 20.9385 107.101 20.9385C106.952 20.9462 106.81 20.999 106.693 21.0899C106.576 21.1809 106.489 21.3055 106.445 21.4472C106.364 21.7288 106.526 21.9559 106.806 21.9559C106.954 21.9483 107.097 21.8954 107.214 21.8045C107.332 21.7136 107.418 21.5889 107.463 21.4472Z" fill="white"/>
<path d="M176.904 30.7885L179.194 38.1592C179.231 38.2789 179.245 38.4049 179.233 38.5298C179.222 38.6547 179.186 38.7762 179.128 38.8872C179.07 38.9983 178.99 39.0967 178.894 39.177C178.798 39.2573 178.687 39.3177 178.567 39.355L165.786 43.3393C165.598 43.3976 165.396 43.3961 165.209 43.3351C165.022 43.2741 164.858 43.1566 164.74 42.9985C164.674 42.9118 164.625 42.8143 164.593 42.7104L162.303 35.3425C162.266 35.2228 162.252 35.0968 162.264 34.9719C162.275 34.847 162.311 34.7255 162.369 34.6145C162.427 34.5034 162.507 34.405 162.603 34.3247C162.699 34.2445 162.81 34.184 162.93 34.1468L175.711 30.1634C175.952 30.0881 176.213 30.1117 176.436 30.2289C176.66 30.3461 176.828 30.5473 176.904 30.7885Z" fill="#CDE0FB"/>
<path d="M179.237 38.4868C179.228 38.6829 179.159 38.8716 179.039 39.0272C178.92 39.1827 178.755 39.2975 178.568 39.3559L165.787 43.3402C165.599 43.3985 165.397 43.3971 165.21 43.3361C165.022 43.2751 164.858 43.1575 164.74 42.9995L171.156 36.8687L179.237 38.4868Z" fill="#BED7FB"/>
<path d="M176.904 30.7892L171.309 38.0858L162.42 35.7205L162.303 35.3451C162.266 35.2254 162.252 35.0994 162.264 34.9745C162.275 34.8496 162.311 34.7281 162.369 34.6171C162.427 34.506 162.507 34.4076 162.603 34.3273C162.699 34.2471 162.81 34.1866 162.93 34.1494L175.711 30.166C175.951 30.0907 176.212 30.114 176.436 30.2308C176.659 30.3476 176.828 30.5484 176.904 30.7892Z" fill="#DFEBFD"/>
<path d="M132.193 3.77917L130.588 9.93629C130.562 10.0364 130.517 10.1304 130.454 10.2128C130.392 10.2953 130.314 10.3647 130.225 10.417C130.136 10.4693 130.037 10.5035 129.935 10.5176C129.833 10.5318 129.729 10.5256 129.629 10.4994L118.955 7.70903C118.798 7.66769 118.657 7.57878 118.553 7.45446C118.448 7.33014 118.384 7.17647 118.37 7.01447C118.362 6.92524 118.37 6.83538 118.393 6.74885L119.997 0.593604C120.023 0.493541 120.068 0.399588 120.13 0.317115C120.193 0.234642 120.271 0.165269 120.36 0.112965C120.449 0.0606608 120.547 0.0264519 120.649 0.0122935C120.752 -0.00186484 120.856 0.00430515 120.956 0.030452L131.632 2.82087C131.833 2.87403 132.005 3.00467 132.11 3.18423C132.215 3.36379 132.245 3.57768 132.193 3.77917Z" fill="#CDE0FB"/>
<path d="M130.479 10.1784C130.388 10.3114 130.258 10.4131 130.107 10.4697C129.956 10.5262 129.792 10.535 129.636 10.4947L118.958 7.70802C118.801 7.66668 118.66 7.57777 118.556 7.45345C118.451 7.32913 118.387 7.17546 118.373 7.01346L125.53 5.52393L130.479 10.1784Z" fill="#BED7FB"/>
<path d="M132.194 3.77804L125.105 6.44175L119.914 0.904087L119.997 0.588722C120.022 0.48866 120.068 0.394704 120.13 0.312232C120.192 0.229759 120.27 0.160387 120.359 0.108083C120.448 0.055779 120.547 0.0215687 120.649 0.00741032C120.751 -0.00674806 120.855 -0.000576635 120.955 0.0255702L131.632 2.81599C131.732 2.84209 131.826 2.88769 131.908 2.95019C131.991 3.01269 132.06 3.09086 132.112 3.18022C132.165 3.26958 132.199 3.36837 132.213 3.47096C132.227 3.57354 132.221 3.67789 132.194 3.77804Z" fill="#DFEBFD"/>
<path d="M216.922 131.881H0.246466C0.110346 131.881 0 131.991 0 132.128V132.211C0 132.348 0.110346 132.458 0.246466 132.458H216.922C217.058 132.458 217.169 132.348 217.169 132.211V132.128C217.169 131.991 217.058 131.881 216.922 131.881Z" fill="#2E3552"/>
</svg>
